<mxfile host="app.diagrams.net" modified="2024-04-29T13:49:08.738Z" agent="Mozilla/5.0 (Windows NT 10.0; Win64; x64) AppleWebKit/537.36 (KHTML, like Gecko) Chrome/124.0.0.0 Safari/537.36 Edg/124.0.0.0" etag="eJFxCaB7C40_IndAUq2h" version="24.2.5" type="github">
  <diagram name="第 1 页" id="9FuAQy3JTvqWWIftWs33">
    <mxGraphModel dx="865" dy="466" grid="1" gridSize="10" guides="1" tooltips="1" connect="1" arrows="1" fold="1" page="1" pageScale="1" pageWidth="827" pageHeight="1169" math="0" shadow="0">
      <root>
        <mxCell id="0" />
        <mxCell id="1" parent="0" />
        <mxCell id="ichc71M4sZUzO8VB6wK0-1" value="" style="rounded=0;whiteSpace=wrap;html=1;strokeColor=none;movable=0;resizable=0;rotatable=0;deletable=0;editable=0;locked=1;connectable=0;" parent="1" vertex="1">
          <mxGeometry x="130" y="20" width="1480" height="1370" as="geometry" />
        </mxCell>
        <mxCell id="ichc71M4sZUzO8VB6wK0-3" value="" style="rounded=0;whiteSpace=wrap;html=1;movable=0;resizable=0;rotatable=0;deletable=0;editable=0;locked=1;connectable=0;" parent="1" vertex="1">
          <mxGeometry x="420" y="80" width="1100" height="1260" as="geometry" />
        </mxCell>
        <mxCell id="ichc71M4sZUzO8VB6wK0-2" value="医护" style="shape=umlActor;verticalLabelPosition=bottom;verticalAlign=top;html=1;outlineConnect=0;fontSize=17;" parent="1" vertex="1">
          <mxGeometry x="200" y="570" width="60" height="120" as="geometry" />
        </mxCell>
        <mxCell id="ichc71M4sZUzO8VB6wK0-4" value="" style="endArrow=classic;html=1;rounded=0;exitX=1;exitY=0.3333333333333333;exitDx=0;exitDy=0;exitPerimeter=0;entryX=0;entryY=0.5;entryDx=0;entryDy=0;" parent="1" source="ichc71M4sZUzO8VB6wK0-2" target="ichc71M4sZUzO8VB6wK0-6" edge="1">
          <mxGeometry width="50" height="50" relative="1" as="geometry">
            <mxPoint x="360" y="610" as="sourcePoint" />
            <mxPoint x="410" y="560" as="targetPoint" />
          </mxGeometry>
        </mxCell>
        <mxCell id="ichc71M4sZUzO8VB6wK0-64" value="" style="group" parent="1" vertex="1" connectable="0">
          <mxGeometry x="470" y="630" width="160" height="80" as="geometry" />
        </mxCell>
        <mxCell id="ichc71M4sZUzO8VB6wK0-6" value="" style="ellipse;whiteSpace=wrap;html=1;" parent="ichc71M4sZUzO8VB6wK0-64" vertex="1">
          <mxGeometry width="160" height="80" as="geometry" />
        </mxCell>
        <mxCell id="ichc71M4sZUzO8VB6wK0-7" value="&lt;span style=&quot;font-size: 16px;&quot;&gt;置管患者&lt;/span&gt;" style="text;html=1;align=center;verticalAlign=middle;whiteSpace=wrap;rounded=0;" parent="ichc71M4sZUzO8VB6wK0-64" vertex="1">
          <mxGeometry x="35" y="25" width="90" height="30" as="geometry" />
        </mxCell>
        <mxCell id="ichc71M4sZUzO8VB6wK0-75" value="" style="group" parent="1" vertex="1" connectable="0">
          <mxGeometry x="750" y="690" width="150" height="70" as="geometry" />
        </mxCell>
        <mxCell id="ichc71M4sZUzO8VB6wK0-76" value="" style="ellipse;whiteSpace=wrap;html=1;" parent="ichc71M4sZUzO8VB6wK0-75" vertex="1">
          <mxGeometry width="150" height="70" as="geometry" />
        </mxCell>
        <mxCell id="ichc71M4sZUzO8VB6wK0-77" value="&lt;span style=&quot;font-size: 16px;&quot;&gt;查看患者信息&lt;/span&gt;" style="text;html=1;align=center;verticalAlign=middle;whiteSpace=wrap;rounded=0;" parent="ichc71M4sZUzO8VB6wK0-75" vertex="1">
          <mxGeometry x="17.307692307692307" y="21.875" width="115.38461538461537" height="26.25" as="geometry" />
        </mxCell>
        <mxCell id="ichc71M4sZUzO8VB6wK0-81" value="" style="group" parent="1" vertex="1" connectable="0">
          <mxGeometry x="750" y="890" width="150" height="70" as="geometry" />
        </mxCell>
        <mxCell id="ichc71M4sZUzO8VB6wK0-82" value="" style="ellipse;whiteSpace=wrap;html=1;" parent="ichc71M4sZUzO8VB6wK0-81" vertex="1">
          <mxGeometry width="150" height="70" as="geometry" />
        </mxCell>
        <mxCell id="ichc71M4sZUzO8VB6wK0-83" value="&lt;span style=&quot;font-size: 16px;&quot;&gt;置管日记&lt;/span&gt;" style="text;html=1;align=center;verticalAlign=middle;whiteSpace=wrap;rounded=0;" parent="ichc71M4sZUzO8VB6wK0-81" vertex="1">
          <mxGeometry x="8.653846153846153" y="21.875" width="132.69230769230768" height="26.25" as="geometry" />
        </mxCell>
        <mxCell id="ichc71M4sZUzO8VB6wK0-87" value="" style="group" parent="1" vertex="1" connectable="0">
          <mxGeometry x="750" y="500" width="150" height="70" as="geometry" />
        </mxCell>
        <mxCell id="ichc71M4sZUzO8VB6wK0-88" value="" style="ellipse;whiteSpace=wrap;html=1;" parent="ichc71M4sZUzO8VB6wK0-87" vertex="1">
          <mxGeometry width="150" height="70" as="geometry" />
        </mxCell>
        <mxCell id="ichc71M4sZUzO8VB6wK0-89" value="&lt;span style=&quot;font-size: 16px;&quot;&gt;风险预测&lt;/span&gt;&lt;span style=&quot;color: rgba(0, 0, 0, 0); font-family: monospace; font-size: 0px; text-align: start; text-wrap: nowrap;&quot;&gt;%3CmxGraphModel%3E%3Croot%3E%3CmxCell%20id%3D%220%22%2F%3E%3CmxCell%20id%3D%221%22%20parent%3D%220%22%2F%3E%3CmxCell%20id%3D%222%22%20value%3D%22%22%20style%3D%22group%22%20vertex%3D%221%22%20connectable%3D%220%22%20parent%3D%221%22%3E%3CmxGeometry%20x%3D%22655%22%20y%3D%22410%22%20width%3D%22160%22%20height%3D%2280%22%20as%3D%22geometry%22%2F%3E%3C%2FmxCell%3E%3CmxCell%20id%3D%223%22%20value%3D%22%22%20style%3D%22ellipse%3BwhiteSpace%3Dwrap%3Bhtml%3D1%3B%22%20vertex%3D%221%22%20parent%3D%222%22%3E%3CmxGeometry%20width%3D%22160%22%20height%3D%2280%22%20as%3D%22geometry%22%2F%3E%3C%2FmxCell%3E%3CmxCell%20id%3D%224%22%20value%3D%22%26lt%3Bspan%20style%3D%26quot%3Bfont-size%3A%2016px%3B%26quot%3B%26gt%3B%E6%96%B0%E5%A2%9E%E6%97%A5%E8%AE%B0%26lt%3B%2Fspan%26gt%3B%22%20style%3D%22text%3Bhtml%3D1%3Balign%3Dcenter%3BverticalAlign%3Dmiddle%3BwhiteSpace%3Dwrap%3Brounded%3D0%3B%22%20vertex%3D%221%22%20parent%3D%222%22%3E%3CmxGeometry%20x%3D%2227.5%22%20y%3D%2225%22%20width%3D%22105%22%20height%3D%2230%22%20as%3D%22geometry%22%2F%3E%3C%2FmxCell%3E%3CmxCell%20id%3D%225%22%20value%3D%22%22%20style%3D%22group%22%20vertex%3D%221%22%20connectable%3D%220%22%20parent%3D%221%22%3E%3CmxGeometry%20x%3D%22655%22%20y%3D%22760%22%20width%3D%22160%22%20height%3D%2280%22%20as%3D%22geometry%22%2F%3E%3C%2FmxCell%3E%3CmxCell%20id%3D%226%22%20value%3D%22%22%20style%3D%22ellipse%3BwhiteSpace%3Dwrap%3Bhtml%3D1%3B%22%20vertex%3D%221%22%20parent%3D%225%22%3E%3CmxGeometry%20width%3D%22160%22%20height%3D%2280%22%20as%3D%22geometry%22%2F%3E%3C%2FmxCell%3E%3CmxCell%20id%3D%227%22%20value%3D%22%26lt%3Bspan%20style%3D%26quot%3Bfont-size%3A%2016px%3B%26quot%3B%26gt%3B%E6%9F%A5%E7%9C%8B%E6%97%A5%E8%AE%B0%26lt%3B%2Fspan%26gt%3B%22%20style%3D%22text%3Bhtml%3D1%3Balign%3Dcenter%3BverticalAlign%3Dmiddle%3BwhiteSpace%3Dwrap%3Brounded%3D0%3B%22%20vertex%3D%221%22%20parent%3D%225%22%3E%3CmxGeometry%20x%3D%2235%22%20y%3D%2228%22%20width%3D%2290%22%20height%3D%2230%22%20as%3D%22geometry%22%2F%3E%3C%2FmxCell%3E%3CmxCell%20id%3D%228%22%20value%3D%22%22%20style%3D%22endArrow%3Dclassic%3Bhtml%3D1%3Brounded%3D0%3BexitX%3D1%3BexitY%3D0.5%3BexitDx%3D0%3BexitDy%3D0%3BentryX%3D0%3BentryY%3D0.5%3BentryDx%3D0%3BentryDy%3D0%3B%22%20edge%3D%221%22%20source%3D%223%22%20target%3D%2210%22%20parent%3D%221%22%3E%3CmxGeometry%20width%3D%2250%22%20height%3D%2250%22%20relative%3D%221%22%20as%3D%22geometry%22%3E%3CmxPoint%20x%3D%22810%22%20y%3D%22600%22%20as%3D%22sourcePoint%22%2F%3E%3CmxPoint%20x%3D%221050%22%20y%3D%22370%22%20as%3D%22targetPoint%22%2F%3E%3C%2FmxGeometry%3E%3C%2FmxCell%3E%3CmxCell%20id%3D%229%22%20value%3D%22%22%20style%3D%22group%22%20vertex%3D%221%22%20connectable%3D%220%22%20parent%3D%221%22%3E%3CmxGeometry%20x%3D%22930%22%20y%3D%22240%22%20width%3D%22145%22%20height%3D%2260%22%20as%3D%22geometry%22%2F%3E%3C%2FmxCell%3E%3CmxCell%20id%3D%2210%22%20value%3D%22%22%20style%3D%22ellipse%3BwhiteSpace%3Dwrap%3Bhtml%3D1%3B%22%20vertex%3D%221%22%20parent%3D%229%22%3E%3CmxGeometry%20width%3D%22145%22%20height%3D%2260%22%20as%3D%22geometry%22%2F%3E%3C%2FmxCell%3E%3CmxCell%20id%3D%2211%22%20value%3D%22%26lt%3Bspan%20style%3D%26quot%3Bfont-size%3A%2016px%3B%26quot%3B%26gt%3B%E6%96%B0%E5%A2%9E%E8%A1%80%E7%AE%A1%E8%B6%85%E5%A3%B0%E6%A3%80%E6%9F%A5%26lt%3B%2Fspan%26gt%3B%22%20style%3D%22text%3Bhtml%3D1%3Balign%3Dcenter%3BverticalAlign%3Dmiddle%3BwhiteSpace%3Dwrap%3Brounded%3D0%3B%22%20vertex%3D%221%22%20parent%3D%229%22%3E%3CmxGeometry%20x%3D%227.02%22%20y%3D%2218.75%22%20width%3D%22130.96%22%20height%3D%2222.5%22%20as%3D%22geometry%22%2F%3E%3C%2FmxCell%3E%3CmxCell%20id%3D%2212%22%20value%3D%22%22%20style%3D%22endArrow%3Dclassic%3Bhtml%3D1%3Brounded%3D0%3BentryX%3D0%3BentryY%3D0.5%3BentryDx%3D0%3BentryDy%3D0%3BexitX%3D1%3BexitY%3D0.5%3BexitDx%3D0%3BexitDy%3D0%3B%22%20edge%3D%221%22%20source%3D%223%22%20target%3D%2214%22%20parent%3D%221%22%3E%3CmxGeometry%20width%3D%2250%22%20height%3D%2250%22%20relative%3D%221%22%20as%3D%22geometry%22%3E%3CmxPoint%20x%3D%22890%22%20y%3D%22550%22%20as%3D%22sourcePoint%22%2F%3E%3CmxPoint%20x%3D%221125%22%20y%3D%22470%22%20as%3D%22targetPoint%22%2F%3E%3C%2FmxGeometry%3E%3C%2FmxCell%3E%3CmxCell%20id%3D%2213%22%20value%3D%22%22%20style%3D%22group%22%20vertex%3D%221%22%20connectable%3D%220%22%20parent%3D%221%22%3E%3CmxGeometry%20x%3D%22930%22%20y%3D%22310%22%20width%3D%22145%22%20height%3D%2260%22%20as%3D%22geometry%22%2F%3E%3C%2FmxCell%3E%3CmxCell%20id%3D%2214%22%20value%3D%22%22%20style%3D%22ellipse%3BwhiteSpace%3Dwrap%3Bhtml%3D1%3B%22%20vertex%3D%221%22%20parent%3D%2213%22%3E%3CmxGeometry%20width%3D%22145%22%20height%3D%2260%22%20as%3D%22geometry%22%2F%3E%3C%2FmxCell%3E%3CmxCell%20id%3D%2215%22%20value%3D%22%26lt%3Bspan%20style%3D%26quot%3Bfont-size%3A%2016px%3B%26quot%3B%26gt%3B%E6%96%B0%E5%A2%9E%E6%8B%94%E7%AE%A1%26lt%3B%2Fspan%26gt%3B%22%20style%3D%22text%3Bhtml%3D1%3Balign%3Dcenter%3BverticalAlign%3Dmiddle%3BwhiteSpace%3Dwrap%3Brounded%3D0%3B%22%20vertex%3D%221%22%20parent%3D%2213%22%3E%3CmxGeometry%20x%3D%227.02%22%20y%3D%2218.75%22%20width%3D%22130.96%22%20height%3D%2222.5%22%20as%3D%22geometry%22%2F%3E%3C%2FmxCell%3E%3CmxCell%20id%3D%2216%22%20value%3D%22%22%20style%3D%22endArrow%3Dclassic%3Bhtml%3D1%3Brounded%3D0%3BexitX%3D1%3BexitY%3D0.5%3BexitDx%3D0%3BexitDy%3D0%3BentryX%3D0%3BentryY%3D0.5%3BentryDx%3D0%3BentryDy%3D0%3B%22%20edge%3D%221%22%20source%3D%223%22%20target%3D%2218%22%20parent%3D%221%22%3E%3CmxGeometry%20width%3D%2250%22%20height%3D%2250%22%20relative%3D%221%22%20as%3D%22geometry%22%3E%3CmxPoint%20x%3D%22799.999999999997%22%20y%3D%22570%22%20as%3D%22sourcePoint%22%2F%3E%3CmxPoint%20x%3D%221055%22%20y%3D%22510%22%20as%3D%22targetPoint%22%2F%3E%3C%2FmxGeometry%3E%3C%2FmxCell%3E%3CmxCell%20id%3D%2217%22%20value%3D%22%22%20style%3D%22group%22%20vertex%3D%221%22%20connectable%3D%220%22%20parent%3D%221%22%3E%3CmxGeometry%20x%3D%22930%22%20y%3D%22380%22%20width%3D%22145%22%20height%3D%2260%22%20as%3D%22geometry%22%2F%3E%3C%2FmxCell%3E%3CmxCell%20id%3D%2218%22%20value%3D%22%22%20style%3D%22ellipse%3BwhiteSpace%3Dwrap%3Bhtml%3D1%3B%22%20vertex%3D%221%22%20parent%3D%2217%22%3E%3CmxGeometry%20width%3D%22145%22%20height%3D%2260%22%20as%3D%22geometry%22%2F%3E%3C%2FmxCell%3E%3CmxCell%20id%3D%2219%22%20value%3D%22%26lt%3Bspan%20style%3D%26quot%3Bfont-size%3A%2016px%3B%26quot%3B%26gt%3B%E6%96%B0%E5%A2%9E%E8%A1%80%E6%B6%B2%E5%8C%96%E9%AA%8C%26lt%3B%2Fspan%26gt%3B%22%20style%3D%22text%3Bhtml%3D1%3Balign%3Dcenter%3BverticalAlign%3Dmiddle%3BwhiteSpace%3Dwrap%3Brounded%3D0%3B%22%20vertex%3D%221%22%20parent%3D%2217%22%3E%3CmxGeometry%20x%3D%227.02%22%20y%3D%2218.75%22%20width%3D%22130.96%22%20height%3D%2222.5%22%20as%3D%22geometry%22%2F%3E%3C%2FmxCell%3E%3CmxCell%20id%3D%2220%22%20value%3D%22%22%20style%3D%22endArrow%3Dclassic%3Bhtml%3D1%3Brounded%3D0%3BexitX%3D1%3BexitY%3D0.5%3BexitDx%3D0%3BexitDy%3D0%3BentryX%3D0%3BentryY%3D0.5%3BentryDx%3D0%3BentryDy%3D0%3B%22%20edge%3D%221%22%20source%3D%223%22%20target%3D%2222%22%20parent%3D%221%22%3E%3CmxGeometry%20width%3D%2250%22%20height%3D%2250%22%20relative%3D%221%22%20as%3D%22geometry%22%3E%3CmxPoint%20x%3D%22825%22%20y%3D%22510%22%20as%3D%22sourcePoint%22%2F%3E%3CmxPoint%20x%3D%221065%22%20y%3D%22570%22%20as%3D%22targetPoint%22%2F%3E%3C%2FmxGeometry%3E%3C%2FmxCell%3E%3CmxCell%20id%3D%2221%22%20value%3D%22%22%20style%3D%22group%22%20vertex%3D%221%22%20connectable%3D%220%22%20parent%3D%221%22%3E%3CmxGeometry%20x%3D%22930%22%20y%3D%22450%22%20width%3D%22145%22%20height%3D%2260%22%20as%3D%22geometry%22%2F%3E%3C%2FmxCell%3E%3CmxCell%20id%3D%2222%22%20value%3D%22%22%20style%3D%22ellipse%3BwhiteSpace%3Dwrap%3Bhtml%3D1%3B%22%20vertex%3D%221%22%20parent%3D%2221%22%3E%3CmxGeometry%20width%3D%22145%22%20height%3D%2260%22%20as%3D%22geometry%22%2F%3E%3C%2FmxCell%3E%3CmxCell%20id%3D%2223%22%20value%3D%22%26lt%3Bspan%20style%3D%26quot%3Bfont-size%3A%2016px%3B%26quot%3B%26gt%3B%E6%96%B0%E5%A2%9E%E6%97%A5%E5%B8%B8%E6%8A%A4%E7%90%86%26lt%3B%2Fspan%26gt%3B%22%20style%3D%22text%3Bhtml%3D1%3Balign%3Dcenter%3BverticalAlign%3Dmiddle%3BwhiteSpace%3Dwrap%3Brounded%3D0%3B%22%20vertex%3D%221%22%20parent%3D%2221%22%3E%3CmxGeometry%20x%3D%227.02%22%20y%3D%2218.75%22%20width%3D%22130.96%22%20height%3D%2222.5%22%20as%3D%22geometry%22%2F%3E%3C%2FmxCell%3E%3CmxCell%20id%3D%2224%22%20value%3D%22%22%20style%3D%22endArrow%3Dclassic%3Bhtml%3D1%3Brounded%3D0%3BexitX%3D1%3BexitY%3D0.5%3BexitDx%3D0%3BexitDy%3D0%3BentryX%3D0%3BentryY%3D0.5%3BentryDx%3D0%3BentryDy%3D0%3B%22%20edge%3D%221%22%20source%3D%226%22%20target%3D%2226%22%20parent%3D%221%22%3E%3CmxGeometry%20width%3D%2250%22%20height%3D%2250%22%20relative%3D%221%22%20as%3D%22geometry%22%3E%3CmxPoint%20x%3D%22840%22%20y%3D%22820%22%20as%3D%22sourcePoint%22%2F%3E%3CmxPoint%20x%3D%221075%22%20y%3D%22740%22%20as%3D%22targetPoint%22%2F%3E%3C%2FmxGeometry%3E%3C%2FmxCell%3E%3CmxCell%20id%3D%2225%22%20value%3D%22%22%20style%3D%22group%22%20vertex%3D%221%22%20connectable%3D%220%22%20parent%3D%221%22%3E%3CmxGeometry%20x%3D%22930%22%20y%3D%22550%22%20width%3D%22145%22%20height%3D%2260%22%20as%3D%22geometry%22%2F%3E%3C%2FmxCell%3E%3CmxCell%20id%3D%2226%22%20value%3D%22%22%20style%3D%22ellipse%3BwhiteSpace%3Dwrap%3Bhtml%3D1%3B%22%20vertex%3D%221%22%20parent%3D%2225%22%3E%3CmxGeometry%20width%3D%22145%22%20height%3D%2260%22%20as%3D%22geometry%22%2F%3E%3C%2FmxCell%3E%3CmxCell%20id%3D%2227%22%20value%3D%22%26lt%3Bspan%20style%3D%26quot%3Bfont-size%3A%2016px%3B%26quot%3B%26gt%3B%E6%9F%A5%E7%9C%8B%E5%85%A5%E9%99%A2%26lt%3B%2Fspan%26gt%3B%22%20style%3D%22text%3Bhtml%3D1%3Balign%3Dcenter%3BverticalAlign%3Dmiddle%3BwhiteSpace%3Dwrap%3Brounded%3D0%3B%22%20vertex%3D%221%22%20parent%3D%2225%22%3E%3CmxGeometry%20x%3D%227.02%22%20y%3D%2218.75%22%20width%3D%22130.96%22%20height%3D%2222.5%22%20as%3D%22geometry%22%2F%3E%3C%2FmxCell%3E%3CmxCell%20id%3D%2228%22%20value%3D%22%22%20style%3D%22endArrow%3Dclassic%3Bhtml%3D1%3Brounded%3D0%3BentryX%3D0%3BentryY%3D0.5%3BentryDx%3D0%3BentryDy%3D0%3BexitX%3D1%3BexitY%3D0.5%3BexitDx%3D0%3BexitDy%3D0%3B%22%20edge%3D%221%22%20source%3D%226%22%20target%3D%2230%22%20parent%3D%221%22%3E%3CmxGeometry%20width%3D%2250%22%20height%3D%2250%22%20relative%3D%221%22%20as%3D%22geometry%22%3E%3CmxPoint%20x%3D%22840%22%20y%3D%22820%22%20as%3D%22sourcePoint%22%2F%3E%3CmxPoint%20x%3D%221150%22%20y%3D%22840%22%20as%3D%22targetPoint%22%2F%3E%3C%2FmxGeometry%3E%3C%2FmxCell%3E%3CmxCell%20id%3D%2229%22%20value%3D%22%22%20style%3D%22group%22%20vertex%3D%221%22%20connectable%3D%220%22%20parent%3D%221%22%3E%3CmxGeometry%20x%3D%22930%22%20y%3D%22620%22%20width%3D%22145%22%20height%3D%2260%22%20as%3D%22geometry%22%2F%3E%3C%2FmxCell%3E%3CmxCell%20id%3D%2230%22%20value%3D%22%22%20style%3D%22ellipse%3BwhiteSpace%3Dwrap%3Bhtml%3D1%3B%22%20vertex%3D%221%22%20parent%3D%2229%22%3E%3CmxGeometry%20width%3D%22145%22%20height%3D%2260%22%20as%3D%22geometry%22%2F%3E%3C%2FmxCell%3E%3CmxCell%20id%3D%2231%22%20value%3D%22%26lt%3Bspan%20style%3D%26quot%3Bfont-size%3A%2016px%3B%26quot%3B%26gt%3B%E6%9F%A5%E7%9C%8B%E5%87%BA%E9%99%A2%26lt%3B%2Fspan%26gt%3B%22%20style%3D%22text%3Bhtml%3D1%3Balign%3Dcenter%3BverticalAlign%3Dmiddle%3BwhiteSpace%3Dwrap%3Brounded%3D0%3B%22%20vertex%3D%221%22%20parent%3D%2229%22%3E%3CmxGeometry%20x%3D%227.02%22%20y%3D%2218.75%22%20width%3D%22130.96%22%20height%3D%2222.5%22%20as%3D%22geometry%22%2F%3E%3C%2FmxCell%3E%3CmxCell%20id%3D%2232%22%20value%3D%22%22%20style%3D%22endArrow%3Dclassic%3Bhtml%3D1%3Brounded%3D0%3BentryX%3D0%3BentryY%3D0.5%3BentryDx%3D0%3BentryDy%3D0%3BexitX%3D1%3BexitY%3D0.5%3BexitDx%3D0%3BexitDy%3D0%3B%22%20edge%3D%221%22%20source%3D%226%22%20target%3D%2234%22%20parent%3D%221%22%3E%3CmxGeometry%20width%3D%2250%22%20height%3D%2250%22%20relative%3D%221%22%20as%3D%22geometry%22%3E%3CmxPoint%20x%3D%22820%22%20y%3D%22660%22%20as%3D%22sourcePoint%22%2F%3E%3CmxPoint%20x%3D%221080%22%20y%3D%22880%22%20as%3D%22targetPoint%22%2F%3E%3C%2FmxGeometry%3E%3C%2FmxCell%3E%3CmxCell%20id%3D%2233%22%20value%3D%22%22%20style%3D%22group%22%20vertex%3D%221%22%20connectable%3D%220%22%20parent%3D%221%22%3E%3CmxGeometry%20x%3D%22930%22%20y%3D%22690%22%20width%3D%22145%22%20height%3D%2260%22%20as%3D%22geometry%22%2F%3E%3C%2FmxCell%3E%3CmxCell%20id%3D%2234%22%20value%3D%22%22%20style%3D%22ellipse%3BwhiteSpace%3Dwrap%3Bhtml%3D1%3B%22%20vertex%3D%221%22%20parent%3D%2233%22%3E%3CmxGeometry%20width%3D%22145%22%20height%3D%2260%22%20as%3D%22geometry%22%2F%3E%3C%2FmxCell%3E%3CmxCell%20id%3D%2235%22%20value%3D%22%26lt%3Bspan%20style%3D%26quot%3Bfont-size%3A%2016px%3B%26quot%3B%26gt%3B%E6%9F%A5%E7%9C%8B%E7%BD%AE%E7%AE%A1%26lt%3B%2Fspan%26gt%3B%22%20style%3D%22text%3Bhtml%3D1%3Balign%3Dcenter%3BverticalAlign%3Dmiddle%3BwhiteSpace%3Dwrap%3Brounded%3D0%3B%22%20vertex%3D%221%22%20parent%3D%2233%22%3E%3CmxGeometry%20x%3D%227.02%22%20y%3D%2218.75%22%20width%3D%22130.96%22%20height%3D%2222.5%22%20as%3D%22geometry%22%2F%3E%3C%2FmxCell%3E%3CmxCell%20id%3D%2236%22%20value%3D%22%22%20style%3D%22endArrow%3Dclassic%3Bhtml%3D1%3Brounded%3D0%3BexitX%3D1%3BexitY%3D0.5%3BexitDx%3D0%3BexitDy%3D0%3BentryX%3D0%3BentryY%3D0.5%3BentryDx%3D0%3BentryDy%3D0%3B%22%20edge%3D%221%22%20source%3D%226%22%20target%3D%2238%22%20parent%3D%221%22%3E%3CmxGeometry%20width%3D%2250%22%20height%3D%2250%22%20relative%3D%221%22%20as%3D%22geometry%22%3E%3CmxPoint%20x%3D%22840%22%20y%3D%22820%22%20as%3D%22sourcePoint%22%2F%3E%3CmxPoint%20x%3D%221090%22%20y%3D%22940%22%20as%3D%22targetPoint%22%2F%3E%3C%2FmxGeometry%3E%3C%2FmxCell%3E%3CmxCell%20id%3D%2237%22%20value%3D%22%22%20style%3D%22group%22%20vertex%3D%221%22%20connectable%3D%220%22%20parent%3D%221%22%3E%3CmxGeometry%20x%3D%22930%22%20y%3D%22760%22%20width%3D%22145%22%20height%3D%2260%22%20as%3D%22geometry%22%2F%3E%3C%2FmxCell%3E%3CmxCell%20id%3D%2238%22%20value%3D%22%22%20style%3D%22ellipse%3BwhiteSpace%3Dwrap%3Bhtml%3D1%3B%22%20vertex%3D%221%22%20parent%3D%2237%22%3E%3CmxGeometry%20width%3D%22145%22%20height%3D%2260%22%20as%3D%22geometry%22%2F%3E%3C%2FmxCell%3E%3CmxCell%20id%3D%2239%22%20value%3D%22%26lt%3Bspan%20style%3D%26quot%3Bfont-size%3A%2016px%3B%26quot%3B%26gt%3B%E6%9F%A5%E7%9C%8B%E6%8B%94%E7%AE%A1%26lt%3B%2Fspan%26gt%3B%22%20style%3D%22text%3Bhtml%3D1%3Balign%3Dcenter%3BverticalAlign%3Dmiddle%3BwhiteSpace%3Dwrap%3Brounded%3D0%3B%22%20vertex%3D%221%22%20parent%3D%2237%22%3E%3CmxGeometry%20x%3D%227.02%22%20y%3D%2218.75%22%20width%3D%22130.96%22%20height%3D%2222.5%22%20as%3D%22geometry%22%2F%3E%3C%2FmxCell%3E%3CmxCell%20id%3D%2240%22%20value%3D%22%22%20style%3D%22endArrow%3Dclassic%3Bhtml%3D1%3Brounded%3D0%3BexitX%3D1%3BexitY%3D0.5%3BexitDx%3D0%3BexitDy%3D0%3BentryX%3D0%3BentryY%3D0.5%3BentryDx%3D0%3BentryDy%3D0%3B%22%20edge%3D%221%22%20source%3D%226%22%20target%3D%2242%22%20parent%3D%221%22%3E%3CmxGeometry%20width%3D%2250%22%20height%3D%2250%22%20relative%3D%221%22%20as%3D%22geometry%22%3E%3CmxPoint%20x%3D%22819%22%20y%3D%22940%22%20as%3D%22sourcePoint%22%2F%3E%3CmxPoint%20x%3D%221079%22%20y%3D%221020%22%20as%3D%22targetPoint%22%2F%3E%3C%2FmxGeometry%3E%3C%2FmxCell%3E%3CmxCell%20id%3D%2241%22%20value%3D%22%22%20style%3D%22group%22%20vertex%3D%221%22%20connectable%3D%220%22%20parent%3D%221%22%3E%3CmxGeometry%20x%3D%22934%22%20y%3D%22830%22%20width%3D%22145%22%20height%3D%2260%22%20as%3D%22geometry%22%2F%3E%3C%2FmxCell%3E%3CmxCell%20id%3D%2242%22%20value%3D%22%22%20style%3D%22ellipse%3BwhiteSpace%3Dwrap%3Bhtml%3D1%3B%22%20vertex%3D%221%22%20parent%3D%2241%22%3E%3CmxGeometry%20width%3D%22145%22%20height%3D%2260%22%20as%3D%22geometry%22%2F%3E%3C%2FmxCell%3E%3CmxCell%20id%3D%2243%22%20value%3D%22%26lt%3Bspan%20style%3D%26quot%3Bfont-size%3A%2016px%3B%26quot%3B%26gt%3B%E6%9F%A5%E7%9C%8B%E6%97%A5%E5%B8%B8%E6%8A%A4%E7%90%86%26lt%3B%2Fspan%26gt%3B%22%20style%3D%22text%3Bhtml%3D1%3Balign%3Dcenter%3BverticalAlign%3Dmiddle%3BwhiteSpace%3Dwrap%3Brounded%3D0%3B%22%20vertex%3D%221%22%20parent%3D%2241%22%3E%3CmxGeometry%20x%3D%227.02%22%20y%3D%2218.75%22%20width%3D%22130.96%22%20height%3D%2222.5%22%20as%3D%22geometry%22%2F%3E%3C%2FmxCell%3E%3CmxCell%20id%3D%2244%22%20value%3D%22%22%20style%3D%22endArrow%3Dclassic%3Bhtml%3D1%3Brounded%3D0%3BentryX%3D0%3BentryY%3D0.5%3BentryDx%3D0%3BentryDy%3D0%3BexitX%3D1.013%3BexitY%3D0.584%3BexitDx%3D0%3BexitDy%3D0%3BexitPerimeter%3D0%3B%22%20edge%3D%221%22%20source%3D%226%22%20target%3D%2246%22%20parent%3D%221%22%3E%3CmxGeometry%20width%3D%2250%22%20height%3D%2250%22%20relative%3D%221%22%20as%3D%22geometry%22%3E%3CmxPoint%20x%3D%22819%22%20y%3D%22940%22%20as%3D%22sourcePoint%22%2F%3E%3CmxPoint%20x%3D%221154%22%20y%3D%221120%22%20as%3D%22targetPoint%22%2F%3E%3C%2FmxGeometry%3E%3C%2FmxCell%3E%3CmxCell%20id%3D%2245%22%20value%3D%22%22%20style%3D%22group%22%20vertex%3D%221%22%20connectable%3D%220%22%20parent%3D%221%22%3E%3CmxGeometry%20x%3D%22934%22%20y%3D%22900%22%20width%3D%22145%22%20height%3D%2260%22%20as%3D%22geometry%22%2F%3E%3C%2FmxCell%3E%3CmxCell%20id%3D%2246%22%20value%3D%22%22%20style%3D%22ellipse%3BwhiteSpace%3Dwrap%3Bhtml%3D1%3B%22%20vertex%3D%221%22%20parent%3D%2245%22%3E%3CmxGeometry%20width%3D%22145%22%20height%3D%2260%22%20as%3D%22geometry%22%2F%3E%3C%2FmxCell%3E%3CmxCell%20id%3D%2247%22%20value%3D%22%26lt%3Bspan%20style%3D%26quot%3Bfont-size%3A%2016px%3B%26quot%3B%26gt%3B%E6%9F%A5%E7%9C%8B%E6%8A%A4%E7%90%86%E5%BB%BA%E8%AE%AE%26lt%3B%2Fspan%26gt%3B%22%20style%3D%22text%3Bhtml%3D1%3Balign%3Dcenter%3BverticalAlign%3Dmiddle%3BwhiteSpace%3Dwrap%3Brounded%3D0%3B%22%20vertex%3D%221%22%20parent%3D%2245%22%3E%3CmxGeometry%20x%3D%227.02%22%20y%3D%2218.75%22%20width%3D%22130.96%22%20height%3D%2222.5%22%20as%3D%22geometry%22%2F%3E%3C%2FmxCell%3E%3CmxCell%20id%3D%2248%22%20value%3D%22%22%20style%3D%22endArrow%3Dclassic%3Bhtml%3D1%3Brounded%3D0%3BentryX%3D0%3BentryY%3D0.5%3BentryDx%3D0%3BentryDy%3D0%3BexitX%3D1%3BexitY%3D0.5%3BexitDx%3D0%3BexitDy%3D0%3B%22%20edge%3D%221%22%20source%3D%226%22%20target%3D%2250%22%20parent%3D%221%22%3E%3CmxGeometry%20width%3D%2250%22%20height%3D%2250%22%20relative%3D%221%22%20as%3D%22geometry%22%3E%3CmxPoint%20x%3D%22819%22%20y%3D%22940%22%20as%3D%22sourcePoint%22%2F%3E%3CmxPoint%20x%3D%221084%22%20y%3D%221160%22%20as%3D%22targetPoint%22%2F%3E%3C%2FmxGeometry%3E%3C%2FmxCell%3E%3CmxCell%20id%3D%2249%22%20value%3D%22%22%20style%3D%22group%22%20vertex%3D%221%22%20connectable%3D%220%22%20parent%3D%221%22%3E%3CmxGeometry%20x%3D%22934%22%20y%3D%22970%22%20width%3D%22145%22%20height%3D%2260%22%20as%3D%22geometry%22%2F%3E%3C%2FmxCell%3E%3CmxCell%20id%3D%2250%22%20value%3D%22%22%20style%3D%22ellipse%3BwhiteSpace%3Dwrap%3Bhtml%3D1%3B%22%20vertex%3D%221%22%20parent%3D%2249%22%3E%3CmxGeometry%20width%3D%22145%22%20height%3D%2260%22%20as%3D%22geometry%22%2F%3E%3C%2FmxCell%3E%3CmxCell%20id%3D%2251%22%20value%3D%22%26lt%3Bspan%20style%3D%26quot%3Bfont-size%3A%2016px%3B%26quot%3B%26gt%3B%E6%9F%A5%E7%9C%8B%E8%A1%80%E6%B6%B2%E5%8C%96%E9%AA%8C%26lt%3B%2Fspan%26gt%3B%22%20style%3D%22text%3Bhtml%3D1%3Balign%3Dcenter%3BverticalAlign%3Dmiddle%3BwhiteSpace%3Dwrap%3Brounded%3D0%3B%22%20vertex%3D%221%22%20parent%3D%2249%22%3E%3CmxGeometry%20x%3D%227.02%22%20y%3D%2218.75%22%20width%3D%22130.96%22%20height%3D%2222.5%22%20as%3D%22geometry%22%2F%3E%3C%2FmxCell%3E%3CmxCell%20id%3D%2252%22%20value%3D%22%22%20style%3D%22endArrow%3Dclassic%3Bhtml%3D1%3Brounded%3D0%3BexitX%3D1%3BexitY%3D0.5%3BexitDx%3D0%3BexitDy%3D0%3BentryX%3D0%3BentryY%3D0.5%3BentryDx%3D0%3BentryDy%3D0%3B%22%20edge%3D%221%22%20source%3D%226%22%20target%3D%2254%22%20parent%3D%221%22%3E%3CmxGeometry%20width%3D%2250%22%20height%3D%2250%22%20relative%3D%221%22%20as%3D%22geometry%22%3E%3CmxPoint%20x%3D%22819%22%20y%3D%22940%22%20as%3D%22sourcePoint%22%2F%3E%3CmxPoint%20x%3D%221094%22%20y%3D%221220%22%20as%3D%22targetPoint%22%2F%3E%3C%2FmxGeometry%3E%3C%2FmxCell%3E%3CmxCell%20id%3D%2253%22%20value%3D%22%22%20style%3D%22group%22%20vertex%3D%221%22%20connectable%3D%220%22%20parent%3D%221%22%3E%3CmxGeometry%20x%3D%22934%22%20y%3D%221040%22%20width%3D%22145%22%20height%3D%2260%22%20as%3D%22geometry%22%2F%3E%3C%2FmxCell%3E%3CmxCell%20id%3D%2254%22%20value%3D%22%22%20style%3D%22ellipse%3BwhiteSpace%3Dwrap%3Bhtml%3D1%3B%22%20vertex%3D%221%22%20parent%3D%2253%22%3E%3CmxGeometry%20width%3D%22145%22%20height%3D%2260%22%20as%3D%22geometry%22%2F%3E%3C%2FmxCell%3E%3CmxCell%20id%3D%2255%22%20value%3D%22%26lt%3Bspan%20style%3D%26quot%3Bfont-size%3A%2016px%3B%26quot%3B%26gt%3B%E6%9F%A5%E7%9C%8B%E8%A1%80%E7%AE%A1%E8%B6%85%E5%A3%B0%E6%A3%80%E6%9F%A5%26lt%3B%2Fspan%26gt%3B%22%20style%3D%22text%3Bhtml%3D1%3Balign%3Dcenter%3BverticalAlign%3Dmiddle%3BwhiteSpace%3Dwrap%3Brounded%3D0%3B%22%20vertex%3D%221%22%20parent%3D%2253%22%3E%3CmxGeometry%20x%3D%227.02%22%20y%3D%2218.75%22%20width%3D%22130.96%22%20height%3D%2222.5%22%20as%3D%22geometry%22%2F%3E%3C%2FmxCell%3E%3C%2Froot%3E%3C%2FmxGraphModel%3E&lt;/span&gt;" style="text;html=1;align=center;verticalAlign=middle;whiteSpace=wrap;rounded=0;" parent="ichc71M4sZUzO8VB6wK0-87" vertex="1">
          <mxGeometry x="8.653846153846153" y="21.875" width="132.69230769230768" height="26.25" as="geometry" />
        </mxCell>
        <mxCell id="ichc71M4sZUzO8VB6wK0-94" value="" style="group" parent="1" vertex="1" connectable="0">
          <mxGeometry x="1010" y="380" width="130" height="60" as="geometry" />
        </mxCell>
        <mxCell id="ichc71M4sZUzO8VB6wK0-95" value="" style="ellipse;whiteSpace=wrap;html=1;" parent="ichc71M4sZUzO8VB6wK0-94" vertex="1">
          <mxGeometry width="130" height="60" as="geometry" />
        </mxCell>
        <mxCell id="ichc71M4sZUzO8VB6wK0-96" value="&lt;span style=&quot;font-size: 16px;&quot;&gt;查看日记&lt;/span&gt;" style="text;html=1;align=center;verticalAlign=middle;whiteSpace=wrap;rounded=0;" parent="ichc71M4sZUzO8VB6wK0-94" vertex="1">
          <mxGeometry x="28.4375" y="21" width="73.125" height="22.5" as="geometry" />
        </mxCell>
        <mxCell id="ichc71M4sZUzO8VB6wK0-114" value="" style="group" parent="1" vertex="1" connectable="0">
          <mxGeometry x="1240" y="130" width="145" height="60" as="geometry" />
        </mxCell>
        <mxCell id="ichc71M4sZUzO8VB6wK0-115" value="" style="ellipse;whiteSpace=wrap;html=1;" parent="ichc71M4sZUzO8VB6wK0-114" vertex="1">
          <mxGeometry width="145" height="60" as="geometry" />
        </mxCell>
        <mxCell id="ichc71M4sZUzO8VB6wK0-116" value="&lt;span style=&quot;font-size: 16px;&quot;&gt;查看入院&lt;/span&gt;" style="text;html=1;align=center;verticalAlign=middle;whiteSpace=wrap;rounded=0;" parent="ichc71M4sZUzO8VB6wK0-114" vertex="1">
          <mxGeometry x="7.02" y="18.75" width="130.96" height="22.5" as="geometry" />
        </mxCell>
        <mxCell id="ichc71M4sZUzO8VB6wK0-118" value="" style="group" parent="1" vertex="1" connectable="0">
          <mxGeometry x="1240" y="200" width="145" height="60" as="geometry" />
        </mxCell>
        <mxCell id="ichc71M4sZUzO8VB6wK0-119" value="" style="ellipse;whiteSpace=wrap;html=1;" parent="ichc71M4sZUzO8VB6wK0-118" vertex="1">
          <mxGeometry width="145" height="60" as="geometry" />
        </mxCell>
        <mxCell id="ichc71M4sZUzO8VB6wK0-120" value="&lt;span style=&quot;font-size: 16px;&quot;&gt;查看出院&lt;/span&gt;" style="text;html=1;align=center;verticalAlign=middle;whiteSpace=wrap;rounded=0;" parent="ichc71M4sZUzO8VB6wK0-118" vertex="1">
          <mxGeometry x="7.02" y="18.75" width="130.96" height="22.5" as="geometry" />
        </mxCell>
        <mxCell id="ichc71M4sZUzO8VB6wK0-122" value="" style="group" parent="1" vertex="1" connectable="0">
          <mxGeometry x="1240" y="270" width="145" height="60" as="geometry" />
        </mxCell>
        <mxCell id="ichc71M4sZUzO8VB6wK0-123" value="" style="ellipse;whiteSpace=wrap;html=1;" parent="ichc71M4sZUzO8VB6wK0-122" vertex="1">
          <mxGeometry width="145" height="60" as="geometry" />
        </mxCell>
        <mxCell id="ichc71M4sZUzO8VB6wK0-124" value="&lt;span style=&quot;font-size: 16px;&quot;&gt;查看置管&lt;/span&gt;" style="text;html=1;align=center;verticalAlign=middle;whiteSpace=wrap;rounded=0;" parent="ichc71M4sZUzO8VB6wK0-122" vertex="1">
          <mxGeometry x="7.02" y="18.75" width="130.96" height="22.5" as="geometry" />
        </mxCell>
        <mxCell id="ichc71M4sZUzO8VB6wK0-126" value="" style="group" parent="1" vertex="1" connectable="0">
          <mxGeometry x="1240" y="340" width="145" height="60" as="geometry" />
        </mxCell>
        <mxCell id="ichc71M4sZUzO8VB6wK0-127" value="" style="ellipse;whiteSpace=wrap;html=1;" parent="ichc71M4sZUzO8VB6wK0-126" vertex="1">
          <mxGeometry width="145" height="60" as="geometry" />
        </mxCell>
        <mxCell id="ichc71M4sZUzO8VB6wK0-128" value="&lt;span style=&quot;font-size: 16px;&quot;&gt;查看拔管&lt;/span&gt;" style="text;html=1;align=center;verticalAlign=middle;whiteSpace=wrap;rounded=0;" parent="ichc71M4sZUzO8VB6wK0-126" vertex="1">
          <mxGeometry x="7.02" y="18.75" width="130.96" height="22.5" as="geometry" />
        </mxCell>
        <mxCell id="ichc71M4sZUzO8VB6wK0-130" value="" style="group" parent="1" vertex="1" connectable="0">
          <mxGeometry x="1244" y="410" width="145" height="60" as="geometry" />
        </mxCell>
        <mxCell id="ichc71M4sZUzO8VB6wK0-131" value="" style="ellipse;whiteSpace=wrap;html=1;" parent="ichc71M4sZUzO8VB6wK0-130" vertex="1">
          <mxGeometry width="145" height="60" as="geometry" />
        </mxCell>
        <mxCell id="ichc71M4sZUzO8VB6wK0-132" value="&lt;span style=&quot;font-size: 16px;&quot;&gt;查看日常护理&lt;/span&gt;" style="text;html=1;align=center;verticalAlign=middle;whiteSpace=wrap;rounded=0;" parent="ichc71M4sZUzO8VB6wK0-130" vertex="1">
          <mxGeometry x="7.02" y="18.75" width="130.96" height="22.5" as="geometry" />
        </mxCell>
        <mxCell id="ichc71M4sZUzO8VB6wK0-134" value="" style="group" parent="1" vertex="1" connectable="0">
          <mxGeometry x="1244" y="480" width="145" height="60" as="geometry" />
        </mxCell>
        <mxCell id="ichc71M4sZUzO8VB6wK0-135" value="" style="ellipse;whiteSpace=wrap;html=1;" parent="ichc71M4sZUzO8VB6wK0-134" vertex="1">
          <mxGeometry width="145" height="60" as="geometry" />
        </mxCell>
        <mxCell id="ichc71M4sZUzO8VB6wK0-136" value="&lt;span style=&quot;font-size: 16px;&quot;&gt;查看护理建议&lt;/span&gt;" style="text;html=1;align=center;verticalAlign=middle;whiteSpace=wrap;rounded=0;" parent="ichc71M4sZUzO8VB6wK0-134" vertex="1">
          <mxGeometry x="7.02" y="18.75" width="130.96" height="22.5" as="geometry" />
        </mxCell>
        <mxCell id="ichc71M4sZUzO8VB6wK0-138" value="" style="group" parent="1" vertex="1" connectable="0">
          <mxGeometry x="1244" y="550" width="145" height="60" as="geometry" />
        </mxCell>
        <mxCell id="ichc71M4sZUzO8VB6wK0-139" value="" style="ellipse;whiteSpace=wrap;html=1;" parent="ichc71M4sZUzO8VB6wK0-138" vertex="1">
          <mxGeometry width="145" height="60" as="geometry" />
        </mxCell>
        <mxCell id="ichc71M4sZUzO8VB6wK0-140" value="&lt;span style=&quot;font-size: 16px;&quot;&gt;查看血液化验&lt;/span&gt;" style="text;html=1;align=center;verticalAlign=middle;whiteSpace=wrap;rounded=0;" parent="ichc71M4sZUzO8VB6wK0-138" vertex="1">
          <mxGeometry x="7.02" y="18.75" width="130.96" height="22.5" as="geometry" />
        </mxCell>
        <mxCell id="ichc71M4sZUzO8VB6wK0-142" value="" style="group" parent="1" vertex="1" connectable="0">
          <mxGeometry x="1244" y="620" width="145" height="60" as="geometry" />
        </mxCell>
        <mxCell id="ichc71M4sZUzO8VB6wK0-143" value="" style="ellipse;whiteSpace=wrap;html=1;" parent="ichc71M4sZUzO8VB6wK0-142" vertex="1">
          <mxGeometry width="145" height="60" as="geometry" />
        </mxCell>
        <mxCell id="ichc71M4sZUzO8VB6wK0-144" value="&lt;span style=&quot;font-size: 16px;&quot;&gt;查看血管超声检查&lt;/span&gt;" style="text;html=1;align=center;verticalAlign=middle;whiteSpace=wrap;rounded=0;" parent="ichc71M4sZUzO8VB6wK0-142" vertex="1">
          <mxGeometry x="7.02" y="18.75" width="130.96" height="22.5" as="geometry" />
        </mxCell>
        <mxCell id="ichc71M4sZUzO8VB6wK0-145" value="" style="group" parent="1" vertex="1" connectable="0">
          <mxGeometry x="1010" y="940" width="130" height="60" as="geometry" />
        </mxCell>
        <mxCell id="ichc71M4sZUzO8VB6wK0-146" value="" style="ellipse;whiteSpace=wrap;html=1;" parent="ichc71M4sZUzO8VB6wK0-145" vertex="1">
          <mxGeometry width="130" height="60" as="geometry" />
        </mxCell>
        <mxCell id="ichc71M4sZUzO8VB6wK0-147" value="&lt;span style=&quot;font-size: 16px;&quot;&gt;新增日记&lt;/span&gt;" style="text;html=1;align=center;verticalAlign=middle;whiteSpace=wrap;rounded=0;" parent="ichc71M4sZUzO8VB6wK0-145" vertex="1">
          <mxGeometry x="28.4375" y="21" width="73.125" height="22.5" as="geometry" />
        </mxCell>
        <mxCell id="ichc71M4sZUzO8VB6wK0-149" value="" style="group" parent="1" vertex="1" connectable="0">
          <mxGeometry x="1240" y="740" width="145" height="60" as="geometry" />
        </mxCell>
        <mxCell id="ichc71M4sZUzO8VB6wK0-150" value="" style="ellipse;whiteSpace=wrap;html=1;" parent="ichc71M4sZUzO8VB6wK0-149" vertex="1">
          <mxGeometry width="145" height="60" as="geometry" />
        </mxCell>
        <mxCell id="ichc71M4sZUzO8VB6wK0-151" value="&lt;span style=&quot;font-size: 16px;&quot;&gt;新增入院&lt;/span&gt;" style="text;html=1;align=center;verticalAlign=middle;whiteSpace=wrap;rounded=0;" parent="ichc71M4sZUzO8VB6wK0-149" vertex="1">
          <mxGeometry x="7.02" y="18.75" width="130.96" height="22.5" as="geometry" />
        </mxCell>
        <mxCell id="ichc71M4sZUzO8VB6wK0-153" value="" style="group" parent="1" vertex="1" connectable="0">
          <mxGeometry x="1240" y="810" width="145" height="60" as="geometry" />
        </mxCell>
        <mxCell id="ichc71M4sZUzO8VB6wK0-154" value="" style="ellipse;whiteSpace=wrap;html=1;" parent="ichc71M4sZUzO8VB6wK0-153" vertex="1">
          <mxGeometry width="145" height="60" as="geometry" />
        </mxCell>
        <mxCell id="ichc71M4sZUzO8VB6wK0-155" value="&lt;span style=&quot;font-size: 16px;&quot;&gt;新增&lt;/span&gt;&lt;span style=&quot;font-size: 16px;&quot;&gt;出院&lt;/span&gt;" style="text;html=1;align=center;verticalAlign=middle;whiteSpace=wrap;rounded=0;" parent="ichc71M4sZUzO8VB6wK0-153" vertex="1">
          <mxGeometry x="7.02" y="18.75" width="130.96" height="22.5" as="geometry" />
        </mxCell>
        <mxCell id="ichc71M4sZUzO8VB6wK0-157" value="" style="group" parent="1" vertex="1" connectable="0">
          <mxGeometry x="1240" y="880" width="145" height="60" as="geometry" />
        </mxCell>
        <mxCell id="ichc71M4sZUzO8VB6wK0-158" value="" style="ellipse;whiteSpace=wrap;html=1;" parent="ichc71M4sZUzO8VB6wK0-157" vertex="1">
          <mxGeometry width="145" height="60" as="geometry" />
        </mxCell>
        <mxCell id="ichc71M4sZUzO8VB6wK0-159" value="&lt;span style=&quot;font-size: 16px;&quot;&gt;新增&lt;/span&gt;&lt;span style=&quot;font-size: 16px;&quot;&gt;置管&lt;/span&gt;" style="text;html=1;align=center;verticalAlign=middle;whiteSpace=wrap;rounded=0;" parent="ichc71M4sZUzO8VB6wK0-157" vertex="1">
          <mxGeometry x="7.02" y="18.75" width="130.96" height="22.5" as="geometry" />
        </mxCell>
        <mxCell id="ichc71M4sZUzO8VB6wK0-161" value="" style="group" parent="1" vertex="1" connectable="0">
          <mxGeometry x="1240" y="950" width="145" height="60" as="geometry" />
        </mxCell>
        <mxCell id="ichc71M4sZUzO8VB6wK0-162" value="" style="ellipse;whiteSpace=wrap;html=1;" parent="ichc71M4sZUzO8VB6wK0-161" vertex="1">
          <mxGeometry width="145" height="60" as="geometry" />
        </mxCell>
        <mxCell id="ichc71M4sZUzO8VB6wK0-163" value="&lt;span style=&quot;font-size: 16px;&quot;&gt;新增&lt;/span&gt;&lt;span style=&quot;font-size: 16px;&quot;&gt;拔管&lt;/span&gt;" style="text;html=1;align=center;verticalAlign=middle;whiteSpace=wrap;rounded=0;" parent="ichc71M4sZUzO8VB6wK0-161" vertex="1">
          <mxGeometry x="7.02" y="18.75" width="130.96" height="22.5" as="geometry" />
        </mxCell>
        <mxCell id="ichc71M4sZUzO8VB6wK0-165" value="" style="group" parent="1" vertex="1" connectable="0">
          <mxGeometry x="1244" y="1020" width="145" height="60" as="geometry" />
        </mxCell>
        <mxCell id="ichc71M4sZUzO8VB6wK0-166" value="" style="ellipse;whiteSpace=wrap;html=1;" parent="ichc71M4sZUzO8VB6wK0-165" vertex="1">
          <mxGeometry width="145" height="60" as="geometry" />
        </mxCell>
        <mxCell id="ichc71M4sZUzO8VB6wK0-167" value="&lt;span style=&quot;font-size: 16px;&quot;&gt;新增&lt;/span&gt;&lt;span style=&quot;font-size: 16px;&quot;&gt;日常护理&lt;/span&gt;" style="text;html=1;align=center;verticalAlign=middle;whiteSpace=wrap;rounded=0;" parent="ichc71M4sZUzO8VB6wK0-165" vertex="1">
          <mxGeometry x="7.02" y="18.75" width="130.96" height="22.5" as="geometry" />
        </mxCell>
        <mxCell id="ichc71M4sZUzO8VB6wK0-169" value="" style="group" parent="1" vertex="1" connectable="0">
          <mxGeometry x="1244" y="1090" width="145" height="60" as="geometry" />
        </mxCell>
        <mxCell id="ichc71M4sZUzO8VB6wK0-170" value="" style="ellipse;whiteSpace=wrap;html=1;" parent="ichc71M4sZUzO8VB6wK0-169" vertex="1">
          <mxGeometry width="145" height="60" as="geometry" />
        </mxCell>
        <mxCell id="ichc71M4sZUzO8VB6wK0-171" value="&lt;span style=&quot;font-size: 16px;&quot;&gt;新增&lt;/span&gt;&lt;span style=&quot;font-size: 16px;&quot;&gt;护理建议&lt;/span&gt;" style="text;html=1;align=center;verticalAlign=middle;whiteSpace=wrap;rounded=0;" parent="ichc71M4sZUzO8VB6wK0-169" vertex="1">
          <mxGeometry x="7.02" y="18.75" width="130.96" height="22.5" as="geometry" />
        </mxCell>
        <mxCell id="ichc71M4sZUzO8VB6wK0-173" value="" style="group" parent="1" vertex="1" connectable="0">
          <mxGeometry x="1244" y="1160" width="145" height="60" as="geometry" />
        </mxCell>
        <mxCell id="ichc71M4sZUzO8VB6wK0-174" value="" style="ellipse;whiteSpace=wrap;html=1;" parent="ichc71M4sZUzO8VB6wK0-173" vertex="1">
          <mxGeometry width="145" height="60" as="geometry" />
        </mxCell>
        <mxCell id="ichc71M4sZUzO8VB6wK0-175" value="&lt;span style=&quot;font-size: 16px;&quot;&gt;新增&lt;/span&gt;&lt;span style=&quot;font-size: 16px;&quot;&gt;血液化验&lt;/span&gt;" style="text;html=1;align=center;verticalAlign=middle;whiteSpace=wrap;rounded=0;" parent="ichc71M4sZUzO8VB6wK0-173" vertex="1">
          <mxGeometry x="7.02" y="18.75" width="130.96" height="22.5" as="geometry" />
        </mxCell>
        <mxCell id="ichc71M4sZUzO8VB6wK0-177" value="" style="group" parent="1" vertex="1" connectable="0">
          <mxGeometry x="1244" y="1230" width="145" height="60" as="geometry" />
        </mxCell>
        <mxCell id="ichc71M4sZUzO8VB6wK0-178" value="" style="ellipse;whiteSpace=wrap;html=1;" parent="ichc71M4sZUzO8VB6wK0-177" vertex="1">
          <mxGeometry width="145" height="60" as="geometry" />
        </mxCell>
        <mxCell id="ichc71M4sZUzO8VB6wK0-179" value="&lt;span style=&quot;font-size: 16px;&quot;&gt;新增&lt;/span&gt;&lt;span style=&quot;font-size: 16px;&quot;&gt;血管超声检查&lt;/span&gt;" style="text;html=1;align=center;verticalAlign=middle;whiteSpace=wrap;rounded=0;" parent="ichc71M4sZUzO8VB6wK0-177" vertex="1">
          <mxGeometry x="7.02" y="18.75" width="130.96" height="22.5" as="geometry" />
        </mxCell>
        <mxCell id="Dv5TJq5iVcI1r37ffcYd-7" value="" style="endArrow=classic;html=1;rounded=0;exitX=1;exitY=0.3333333333333333;exitDx=0;exitDy=0;exitPerimeter=0;entryX=0;entryY=0.5;entryDx=0;entryDy=0;" parent="1" source="ichc71M4sZUzO8VB6wK0-2" target="Dv5TJq5iVcI1r37ffcYd-9" edge="1">
          <mxGeometry width="50" height="50" relative="1" as="geometry">
            <mxPoint x="260" y="1069" as="sourcePoint" />
            <mxPoint x="410" y="1019" as="targetPoint" />
          </mxGeometry>
        </mxCell>
        <mxCell id="Dv5TJq5iVcI1r37ffcYd-8" value="" style="group" parent="1" vertex="1" connectable="0">
          <mxGeometry x="470" y="1089" width="160" height="80" as="geometry" />
        </mxCell>
        <mxCell id="Dv5TJq5iVcI1r37ffcYd-9" value="" style="ellipse;whiteSpace=wrap;html=1;" parent="Dv5TJq5iVcI1r37ffcYd-8" vertex="1">
          <mxGeometry width="160" height="80" as="geometry" />
        </mxCell>
        <mxCell id="Dv5TJq5iVcI1r37ffcYd-10" value="&lt;span style=&quot;font-size: 16px;&quot;&gt;所有患者&lt;/span&gt;" style="text;html=1;align=center;verticalAlign=middle;whiteSpace=wrap;rounded=0;" parent="Dv5TJq5iVcI1r37ffcYd-8" vertex="1">
          <mxGeometry x="35" y="25" width="90" height="30" as="geometry" />
        </mxCell>
        <mxCell id="Dv5TJq5iVcI1r37ffcYd-13" value="" style="endArrow=classic;html=1;rounded=0;exitX=1;exitY=0.3333333333333333;exitDx=0;exitDy=0;exitPerimeter=0;entryX=0;entryY=0.5;entryDx=0;entryDy=0;" parent="1" source="ichc71M4sZUzO8VB6wK0-2" target="Dv5TJq5iVcI1r37ffcYd-15" edge="1">
          <mxGeometry width="50" height="50" relative="1" as="geometry">
            <mxPoint x="270" y="170" as="sourcePoint" />
            <mxPoint x="420" y="120" as="targetPoint" />
          </mxGeometry>
        </mxCell>
        <mxCell id="Dv5TJq5iVcI1r37ffcYd-14" value="" style="group" parent="1" vertex="1" connectable="0">
          <mxGeometry x="470" y="190" width="160" height="80" as="geometry" />
        </mxCell>
        <mxCell id="Dv5TJq5iVcI1r37ffcYd-15" value="" style="ellipse;whiteSpace=wrap;html=1;" parent="Dv5TJq5iVcI1r37ffcYd-14" vertex="1">
          <mxGeometry width="160" height="80" as="geometry" />
        </mxCell>
        <mxCell id="Dv5TJq5iVcI1r37ffcYd-16" value="&lt;span style=&quot;font-size: 16px;&quot;&gt;个人中心&lt;/span&gt;" style="text;html=1;align=center;verticalAlign=middle;whiteSpace=wrap;rounded=0;" parent="Dv5TJq5iVcI1r37ffcYd-14" vertex="1">
          <mxGeometry x="35" y="25" width="90" height="30" as="geometry" />
        </mxCell>
        <mxCell id="Dv5TJq5iVcI1r37ffcYd-17" value="" style="group" parent="1" vertex="1" connectable="0">
          <mxGeometry x="750" y="100" width="150" height="70" as="geometry" />
        </mxCell>
        <mxCell id="Dv5TJq5iVcI1r37ffcYd-18" value="" style="group" parent="Dv5TJq5iVcI1r37ffcYd-17" vertex="1" connectable="0">
          <mxGeometry width="150" height="70" as="geometry" />
        </mxCell>
        <mxCell id="Dv5TJq5iVcI1r37ffcYd-19" value="" style="ellipse;whiteSpace=wrap;html=1;" parent="Dv5TJq5iVcI1r37ffcYd-18" vertex="1">
          <mxGeometry width="150" height="70" as="geometry" />
        </mxCell>
        <mxCell id="Dv5TJq5iVcI1r37ffcYd-20" value="&lt;span style=&quot;font-size: 16px;&quot;&gt;查看个人信息&lt;/span&gt;" style="text;html=1;align=center;verticalAlign=middle;whiteSpace=wrap;rounded=0;" parent="Dv5TJq5iVcI1r37ffcYd-18" vertex="1">
          <mxGeometry x="25.78125" y="21.875" width="98.4375" height="26.25" as="geometry" />
        </mxCell>
        <mxCell id="Dv5TJq5iVcI1r37ffcYd-22" value="" style="group" parent="1" vertex="1" connectable="0">
          <mxGeometry x="750" y="240" width="150" height="70" as="geometry" />
        </mxCell>
        <mxCell id="Dv5TJq5iVcI1r37ffcYd-23" value="" style="group" parent="Dv5TJq5iVcI1r37ffcYd-22" vertex="1" connectable="0">
          <mxGeometry width="150" height="70" as="geometry" />
        </mxCell>
        <mxCell id="Dv5TJq5iVcI1r37ffcYd-24" value="" style="ellipse;whiteSpace=wrap;html=1;" parent="Dv5TJq5iVcI1r37ffcYd-23" vertex="1">
          <mxGeometry width="150" height="70" as="geometry" />
        </mxCell>
        <mxCell id="Dv5TJq5iVcI1r37ffcYd-25" value="&lt;span style=&quot;font-size: 16px;&quot;&gt;出示二维码名片&lt;/span&gt;" style="text;html=1;align=center;verticalAlign=middle;whiteSpace=wrap;rounded=0;" parent="Dv5TJq5iVcI1r37ffcYd-23" vertex="1">
          <mxGeometry x="5" y="21.88" width="140" height="26.25" as="geometry" />
        </mxCell>
        <mxCell id="Dv5TJq5iVcI1r37ffcYd-27" value="" style="group" parent="1" vertex="1" connectable="0">
          <mxGeometry x="750" y="380" width="150" height="70" as="geometry" />
        </mxCell>
        <mxCell id="Dv5TJq5iVcI1r37ffcYd-28" value="" style="group" parent="Dv5TJq5iVcI1r37ffcYd-27" vertex="1" connectable="0">
          <mxGeometry width="150" height="70" as="geometry" />
        </mxCell>
        <mxCell id="Dv5TJq5iVcI1r37ffcYd-29" value="" style="ellipse;whiteSpace=wrap;html=1;" parent="Dv5TJq5iVcI1r37ffcYd-28" vertex="1">
          <mxGeometry width="150" height="70" as="geometry" />
        </mxCell>
        <mxCell id="Dv5TJq5iVcI1r37ffcYd-30" value="&lt;span style=&quot;font-size: 16px;&quot;&gt;扫描患者二维码&lt;/span&gt;" style="text;html=1;align=center;verticalAlign=middle;whiteSpace=wrap;rounded=0;" parent="Dv5TJq5iVcI1r37ffcYd-28" vertex="1">
          <mxGeometry x="14.379999999999999" y="21.869999999999997" width="121.25" height="26.25" as="geometry" />
        </mxCell>
        <mxCell id="fBks2_fVxlqvr1XdINWW-1" value="&amp;lt;&amp;lt;include&amp;gt;&amp;gt;" style="html=1;verticalAlign=bottom;labelBackgroundColor=none;endArrow=open;endFill=0;dashed=1;rounded=0;exitX=1;exitY=0.5;exitDx=0;exitDy=0;entryX=0;entryY=0.5;entryDx=0;entryDy=0;" edge="1" parent="1" source="Dv5TJq5iVcI1r37ffcYd-15" target="Dv5TJq5iVcI1r37ffcYd-19">
          <mxGeometry width="160" relative="1" as="geometry">
            <mxPoint x="580" y="180" as="sourcePoint" />
            <mxPoint x="740" y="180" as="targetPoint" />
          </mxGeometry>
        </mxCell>
        <mxCell id="fBks2_fVxlqvr1XdINWW-2" value="&amp;lt;&amp;lt;include&amp;gt;&amp;gt;" style="html=1;verticalAlign=bottom;labelBackgroundColor=none;endArrow=open;endFill=0;dashed=1;rounded=0;exitX=1;exitY=0.5;exitDx=0;exitDy=0;entryX=0;entryY=0.5;entryDx=0;entryDy=0;" edge="1" parent="1" source="Dv5TJq5iVcI1r37ffcYd-15" target="Dv5TJq5iVcI1r37ffcYd-24">
          <mxGeometry width="160" relative="1" as="geometry">
            <mxPoint x="640" y="240" as="sourcePoint" />
            <mxPoint x="750" y="270" as="targetPoint" />
          </mxGeometry>
        </mxCell>
        <mxCell id="fBks2_fVxlqvr1XdINWW-3" value="&amp;lt;&amp;lt;include&amp;gt;&amp;gt;" style="html=1;verticalAlign=bottom;labelBackgroundColor=none;endArrow=open;endFill=0;dashed=1;rounded=0;exitX=1;exitY=0.5;exitDx=0;exitDy=0;entryX=0;entryY=0.5;entryDx=0;entryDy=0;" edge="1" parent="1" source="Dv5TJq5iVcI1r37ffcYd-15" target="Dv5TJq5iVcI1r37ffcYd-29">
          <mxGeometry width="160" relative="1" as="geometry">
            <mxPoint x="650" y="250" as="sourcePoint" />
            <mxPoint x="770" y="155" as="targetPoint" />
          </mxGeometry>
        </mxCell>
        <mxCell id="fBks2_fVxlqvr1XdINWW-4" value="&amp;lt;&amp;lt;include&amp;gt;&amp;gt;" style="html=1;verticalAlign=bottom;labelBackgroundColor=none;endArrow=open;endFill=0;dashed=1;rounded=0;exitX=1;exitY=0.5;exitDx=0;exitDy=0;entryX=0;entryY=0.5;entryDx=0;entryDy=0;" edge="1" parent="1" source="ichc71M4sZUzO8VB6wK0-6" target="ichc71M4sZUzO8VB6wK0-88">
          <mxGeometry width="160" relative="1" as="geometry">
            <mxPoint x="640" y="240" as="sourcePoint" />
            <mxPoint x="760" y="425" as="targetPoint" />
          </mxGeometry>
        </mxCell>
        <mxCell id="fBks2_fVxlqvr1XdINWW-5" value="&amp;lt;&amp;lt;include&amp;gt;&amp;gt;" style="html=1;verticalAlign=bottom;labelBackgroundColor=none;endArrow=open;endFill=0;dashed=1;rounded=0;exitX=1;exitY=0.5;exitDx=0;exitDy=0;entryX=0;entryY=0.5;entryDx=0;entryDy=0;" edge="1" parent="1" source="ichc71M4sZUzO8VB6wK0-6" target="ichc71M4sZUzO8VB6wK0-76">
          <mxGeometry width="160" relative="1" as="geometry">
            <mxPoint x="640" y="680" as="sourcePoint" />
            <mxPoint x="760" y="545" as="targetPoint" />
          </mxGeometry>
        </mxCell>
        <mxCell id="fBks2_fVxlqvr1XdINWW-6" value="&amp;lt;&amp;lt;include&amp;gt;&amp;gt;" style="html=1;verticalAlign=bottom;labelBackgroundColor=none;endArrow=open;endFill=0;dashed=1;rounded=0;exitX=1;exitY=0.5;exitDx=0;exitDy=0;entryX=0;entryY=0.5;entryDx=0;entryDy=0;" edge="1" parent="1" source="ichc71M4sZUzO8VB6wK0-6" target="ichc71M4sZUzO8VB6wK0-82">
          <mxGeometry width="160" relative="1" as="geometry">
            <mxPoint x="650" y="690" as="sourcePoint" />
            <mxPoint x="770" y="555" as="targetPoint" />
          </mxGeometry>
        </mxCell>
        <mxCell id="fBks2_fVxlqvr1XdINWW-7" value="&amp;lt;&amp;lt;include&amp;gt;&amp;gt;" style="html=1;verticalAlign=bottom;labelBackgroundColor=none;endArrow=open;endFill=0;dashed=1;rounded=0;entryX=0;entryY=0.5;entryDx=0;entryDy=0;exitX=1;exitY=0.5;exitDx=0;exitDy=0;" edge="1" parent="1" source="Dv5TJq5iVcI1r37ffcYd-9" target="ichc71M4sZUzO8VB6wK0-76">
          <mxGeometry width="160" relative="1" as="geometry">
            <mxPoint x="630" y="990" as="sourcePoint" />
            <mxPoint x="780" y="565" as="targetPoint" />
          </mxGeometry>
        </mxCell>
        <mxCell id="fBks2_fVxlqvr1XdINWW-8" value="&amp;lt;&amp;lt;include&amp;gt;&amp;gt;" style="html=1;verticalAlign=bottom;labelBackgroundColor=none;endArrow=open;endFill=0;dashed=1;rounded=0;entryX=0;entryY=0.5;entryDx=0;entryDy=0;exitX=1;exitY=0.5;exitDx=0;exitDy=0;" edge="1" parent="1" source="Dv5TJq5iVcI1r37ffcYd-9" target="ichc71M4sZUzO8VB6wK0-82">
          <mxGeometry width="160" relative="1" as="geometry">
            <mxPoint x="640" y="1139" as="sourcePoint" />
            <mxPoint x="760" y="735" as="targetPoint" />
          </mxGeometry>
        </mxCell>
        <mxCell id="fBks2_fVxlqvr1XdINWW-9" value="&amp;lt;&amp;lt;include&amp;gt;&amp;gt;" style="html=1;verticalAlign=bottom;labelBackgroundColor=none;endArrow=open;endFill=0;dashed=1;rounded=0;entryX=0;entryY=0.5;entryDx=0;entryDy=0;exitX=1;exitY=0.5;exitDx=0;exitDy=0;" edge="1" parent="1" source="ichc71M4sZUzO8VB6wK0-82" target="ichc71M4sZUzO8VB6wK0-146">
          <mxGeometry width="160" relative="1" as="geometry">
            <mxPoint x="640" y="1139" as="sourcePoint" />
            <mxPoint x="760" y="935" as="targetPoint" />
          </mxGeometry>
        </mxCell>
        <mxCell id="fBks2_fVxlqvr1XdINWW-10" value="&amp;lt;&amp;lt;include&amp;gt;&amp;gt;" style="html=1;verticalAlign=bottom;labelBackgroundColor=none;endArrow=open;endFill=0;dashed=1;rounded=0;entryX=0;entryY=0.5;entryDx=0;entryDy=0;exitX=1;exitY=0.5;exitDx=0;exitDy=0;" edge="1" parent="1" source="ichc71M4sZUzO8VB6wK0-146" target="ichc71M4sZUzO8VB6wK0-150">
          <mxGeometry width="160" relative="1" as="geometry">
            <mxPoint x="650" y="1149" as="sourcePoint" />
            <mxPoint x="770" y="945" as="targetPoint" />
          </mxGeometry>
        </mxCell>
        <mxCell id="fBks2_fVxlqvr1XdINWW-11" value="&amp;lt;&amp;lt;include&amp;gt;&amp;gt;" style="html=1;verticalAlign=bottom;labelBackgroundColor=none;endArrow=open;endFill=0;dashed=1;rounded=0;entryX=0;entryY=0.5;entryDx=0;entryDy=0;" edge="1" parent="1" target="ichc71M4sZUzO8VB6wK0-154">
          <mxGeometry width="160" relative="1" as="geometry">
            <mxPoint x="1140" y="970" as="sourcePoint" />
            <mxPoint x="1250" y="780" as="targetPoint" />
          </mxGeometry>
        </mxCell>
        <mxCell id="fBks2_fVxlqvr1XdINWW-12" value="&amp;lt;&amp;lt;include&amp;gt;&amp;gt;" style="html=1;verticalAlign=bottom;labelBackgroundColor=none;endArrow=open;endFill=0;dashed=1;rounded=0;entryX=0;entryY=0.5;entryDx=0;entryDy=0;exitX=1;exitY=0.5;exitDx=0;exitDy=0;" edge="1" parent="1" source="ichc71M4sZUzO8VB6wK0-146" target="ichc71M4sZUzO8VB6wK0-158">
          <mxGeometry width="160" relative="1" as="geometry">
            <mxPoint x="1160" y="990" as="sourcePoint" />
            <mxPoint x="1260" y="790" as="targetPoint" />
          </mxGeometry>
        </mxCell>
        <mxCell id="fBks2_fVxlqvr1XdINWW-13" value="&amp;lt;&amp;lt;include&amp;gt;&amp;gt;" style="html=1;verticalAlign=bottom;labelBackgroundColor=none;endArrow=open;endFill=0;dashed=1;rounded=0;entryX=0;entryY=0.5;entryDx=0;entryDy=0;exitX=1;exitY=0.5;exitDx=0;exitDy=0;" edge="1" parent="1" source="ichc71M4sZUzO8VB6wK0-146" target="ichc71M4sZUzO8VB6wK0-162">
          <mxGeometry width="160" relative="1" as="geometry">
            <mxPoint x="1170" y="1000" as="sourcePoint" />
            <mxPoint x="1270" y="800" as="targetPoint" />
          </mxGeometry>
        </mxCell>
        <mxCell id="fBks2_fVxlqvr1XdINWW-14" value="&amp;lt;&amp;lt;include&amp;gt;&amp;gt;" style="html=1;verticalAlign=bottom;labelBackgroundColor=none;endArrow=open;endFill=0;dashed=1;rounded=0;entryX=0;entryY=0.5;entryDx=0;entryDy=0;exitX=1;exitY=0.5;exitDx=0;exitDy=0;" edge="1" parent="1" source="ichc71M4sZUzO8VB6wK0-146" target="ichc71M4sZUzO8VB6wK0-166">
          <mxGeometry width="160" relative="1" as="geometry">
            <mxPoint x="1180" y="1010" as="sourcePoint" />
            <mxPoint x="1280" y="810" as="targetPoint" />
          </mxGeometry>
        </mxCell>
        <mxCell id="fBks2_fVxlqvr1XdINWW-15" value="&amp;lt;&amp;lt;include&amp;gt;&amp;gt;" style="html=1;verticalAlign=bottom;labelBackgroundColor=none;endArrow=open;endFill=0;dashed=1;rounded=0;entryX=0;entryY=0.5;entryDx=0;entryDy=0;exitX=1;exitY=0.5;exitDx=0;exitDy=0;" edge="1" parent="1" source="ichc71M4sZUzO8VB6wK0-146" target="ichc71M4sZUzO8VB6wK0-170">
          <mxGeometry width="160" relative="1" as="geometry">
            <mxPoint x="1190" y="1020" as="sourcePoint" />
            <mxPoint x="1290" y="820" as="targetPoint" />
          </mxGeometry>
        </mxCell>
        <mxCell id="fBks2_fVxlqvr1XdINWW-16" value="&amp;lt;&amp;lt;include&amp;gt;&amp;gt;" style="html=1;verticalAlign=bottom;labelBackgroundColor=none;endArrow=open;endFill=0;dashed=1;rounded=0;entryX=0;entryY=0.5;entryDx=0;entryDy=0;exitX=1;exitY=0.5;exitDx=0;exitDy=0;" edge="1" parent="1" source="ichc71M4sZUzO8VB6wK0-146" target="ichc71M4sZUzO8VB6wK0-174">
          <mxGeometry width="160" relative="1" as="geometry">
            <mxPoint x="1200" y="1030" as="sourcePoint" />
            <mxPoint x="1300" y="830" as="targetPoint" />
          </mxGeometry>
        </mxCell>
        <mxCell id="fBks2_fVxlqvr1XdINWW-17" value="&amp;lt;&amp;lt;include&amp;gt;&amp;gt;" style="html=1;verticalAlign=bottom;labelBackgroundColor=none;endArrow=open;endFill=0;dashed=1;rounded=0;entryX=0;entryY=0.5;entryDx=0;entryDy=0;exitX=1;exitY=0.5;exitDx=0;exitDy=0;" edge="1" parent="1" source="ichc71M4sZUzO8VB6wK0-146" target="ichc71M4sZUzO8VB6wK0-178">
          <mxGeometry width="160" relative="1" as="geometry">
            <mxPoint x="1210" y="1040" as="sourcePoint" />
            <mxPoint x="1310" y="840" as="targetPoint" />
          </mxGeometry>
        </mxCell>
        <mxCell id="fBks2_fVxlqvr1XdINWW-18" value="&amp;lt;&amp;lt;include&amp;gt;&amp;gt;" style="html=1;verticalAlign=bottom;labelBackgroundColor=none;endArrow=open;endFill=0;dashed=1;rounded=0;exitX=1;exitY=0.5;exitDx=0;exitDy=0;entryX=0;entryY=1;entryDx=0;entryDy=0;" edge="1" parent="1" source="ichc71M4sZUzO8VB6wK0-82" target="ichc71M4sZUzO8VB6wK0-95">
          <mxGeometry width="160" relative="1" as="geometry">
            <mxPoint x="990" y="1089" as="sourcePoint" />
            <mxPoint x="1020" y="440" as="targetPoint" />
          </mxGeometry>
        </mxCell>
        <mxCell id="fBks2_fVxlqvr1XdINWW-20" value="&amp;lt;&amp;lt;include&amp;gt;&amp;gt;" style="html=1;verticalAlign=bottom;labelBackgroundColor=none;endArrow=open;endFill=0;dashed=1;rounded=0;exitX=1;exitY=0.5;exitDx=0;exitDy=0;entryX=0;entryY=0.5;entryDx=0;entryDy=0;" edge="1" parent="1" source="ichc71M4sZUzO8VB6wK0-95" target="ichc71M4sZUzO8VB6wK0-115">
          <mxGeometry width="160" relative="1" as="geometry">
            <mxPoint x="1060" y="530" as="sourcePoint" />
            <mxPoint x="1190" y="360" as="targetPoint" />
          </mxGeometry>
        </mxCell>
        <mxCell id="fBks2_fVxlqvr1XdINWW-21" value="&amp;lt;&amp;lt;include&amp;gt;&amp;gt;" style="html=1;verticalAlign=bottom;labelBackgroundColor=none;endArrow=open;endFill=0;dashed=1;rounded=0;exitX=1;exitY=0.5;exitDx=0;exitDy=0;entryX=0;entryY=0.5;entryDx=0;entryDy=0;" edge="1" parent="1" source="ichc71M4sZUzO8VB6wK0-95" target="ichc71M4sZUzO8VB6wK0-119">
          <mxGeometry width="160" relative="1" as="geometry">
            <mxPoint x="1150" y="420" as="sourcePoint" />
            <mxPoint x="1250" y="170" as="targetPoint" />
          </mxGeometry>
        </mxCell>
        <mxCell id="fBks2_fVxlqvr1XdINWW-22" value="&amp;lt;&amp;lt;include&amp;gt;&amp;gt;" style="html=1;verticalAlign=bottom;labelBackgroundColor=none;endArrow=open;endFill=0;dashed=1;rounded=0;exitX=1;exitY=0.5;exitDx=0;exitDy=0;entryX=0;entryY=0.5;entryDx=0;entryDy=0;" edge="1" parent="1" source="ichc71M4sZUzO8VB6wK0-95" target="ichc71M4sZUzO8VB6wK0-123">
          <mxGeometry width="160" relative="1" as="geometry">
            <mxPoint x="1160" y="430" as="sourcePoint" />
            <mxPoint x="1260" y="180" as="targetPoint" />
          </mxGeometry>
        </mxCell>
        <mxCell id="fBks2_fVxlqvr1XdINWW-23" value="&amp;lt;&amp;lt;include&amp;gt;&amp;gt;" style="html=1;verticalAlign=bottom;labelBackgroundColor=none;endArrow=open;endFill=0;dashed=1;rounded=0;exitX=1;exitY=0.5;exitDx=0;exitDy=0;entryX=0;entryY=0.5;entryDx=0;entryDy=0;" edge="1" parent="1" source="ichc71M4sZUzO8VB6wK0-95" target="ichc71M4sZUzO8VB6wK0-127">
          <mxGeometry width="160" relative="1" as="geometry">
            <mxPoint x="1150" y="420" as="sourcePoint" />
            <mxPoint x="1250" y="310" as="targetPoint" />
          </mxGeometry>
        </mxCell>
        <mxCell id="fBks2_fVxlqvr1XdINWW-24" value="&amp;lt;&amp;lt;include&amp;gt;&amp;gt;" style="html=1;verticalAlign=bottom;labelBackgroundColor=none;endArrow=open;endFill=0;dashed=1;rounded=0;exitX=1;exitY=0.5;exitDx=0;exitDy=0;entryX=0;entryY=0.5;entryDx=0;entryDy=0;" edge="1" parent="1" source="ichc71M4sZUzO8VB6wK0-95" target="ichc71M4sZUzO8VB6wK0-131">
          <mxGeometry width="160" relative="1" as="geometry">
            <mxPoint x="1160" y="430" as="sourcePoint" />
            <mxPoint x="1260" y="320" as="targetPoint" />
          </mxGeometry>
        </mxCell>
        <mxCell id="fBks2_fVxlqvr1XdINWW-25" value="&amp;lt;&amp;lt;include&amp;gt;&amp;gt;" style="html=1;verticalAlign=bottom;labelBackgroundColor=none;endArrow=open;endFill=0;dashed=1;rounded=0;exitX=1;exitY=0.5;exitDx=0;exitDy=0;entryX=0;entryY=0.5;entryDx=0;entryDy=0;" edge="1" parent="1" source="ichc71M4sZUzO8VB6wK0-95" target="ichc71M4sZUzO8VB6wK0-135">
          <mxGeometry width="160" relative="1" as="geometry">
            <mxPoint x="1170" y="440" as="sourcePoint" />
            <mxPoint x="1270" y="330" as="targetPoint" />
          </mxGeometry>
        </mxCell>
        <mxCell id="fBks2_fVxlqvr1XdINWW-26" value="&amp;lt;&amp;lt;include&amp;gt;&amp;gt;" style="html=1;verticalAlign=bottom;labelBackgroundColor=none;endArrow=open;endFill=0;dashed=1;rounded=0;exitX=1;exitY=0.5;exitDx=0;exitDy=0;entryX=0;entryY=0.5;entryDx=0;entryDy=0;" edge="1" parent="1" source="ichc71M4sZUzO8VB6wK0-95" target="ichc71M4sZUzO8VB6wK0-139">
          <mxGeometry width="160" relative="1" as="geometry">
            <mxPoint x="1180" y="450" as="sourcePoint" />
            <mxPoint x="1280" y="340" as="targetPoint" />
          </mxGeometry>
        </mxCell>
        <mxCell id="fBks2_fVxlqvr1XdINWW-27" value="&amp;lt;&amp;lt;include&amp;gt;&amp;gt;" style="html=1;verticalAlign=bottom;labelBackgroundColor=none;endArrow=open;endFill=0;dashed=1;rounded=0;exitX=1;exitY=0.5;exitDx=0;exitDy=0;entryX=0;entryY=0.5;entryDx=0;entryDy=0;" edge="1" parent="1" source="ichc71M4sZUzO8VB6wK0-95" target="ichc71M4sZUzO8VB6wK0-143">
          <mxGeometry width="160" relative="1" as="geometry">
            <mxPoint x="1190" y="460" as="sourcePoint" />
            <mxPoint x="1290" y="350" as="targetPoint" />
          </mxGeometry>
        </mxCell>
      </root>
    </mxGraphModel>
  </diagram>
</mxfile>
